<?xml version="1.0" encoding="UTF-8" standalone="no"?>
<!-- Created with Inkscape (http://www.inkscape.org/) -->

<svg
   width="76.389923mm"
   height="23.401379mm"
   viewBox="0 0 76.389923 23.401379"
   version="1.1"
   id="svg5"
   xml:space="preserve"
   inkscape:export-filename="auto.svg"
   inkscape:export-xdpi="96"
   inkscape:export-ydpi="96"
   xmlns:inkscape="http://www.inkscape.org/namespaces/inkscape"
   xmlns:sodipodi="http://sodipodi.sourceforge.net/DTD/sodipodi-0.dtd"
   xmlns="http://www.w3.org/2000/svg"
   xmlns:svg="http://www.w3.org/2000/svg"><sodipodi:namedview
     id="namedview7"
     pagecolor="#ffffff"
     bordercolor="#000000"
     borderopacity="0.25"
     inkscape:showpageshadow="2"
     inkscape:pageopacity="0.0"
     inkscape:pagecheckerboard="0"
     inkscape:deskcolor="#d1d1d1"
     inkscape:document-units="mm"
     showgrid="false"
     inkscape:zoom="2.9006173"
     inkscape:cx="151.17472"
     inkscape:cy="13.273037"
     inkscape:window-width="1920"
     inkscape:window-height="1001"
     inkscape:window-x="-9"
     inkscape:window-y="-9"
     inkscape:window-maximized="1"
     inkscape:current-layer="layer2" /><defs
     id="defs2" /><g
     inkscape:groupmode="layer"
     id="layer2"
     inkscape:label="Layer 2"
     transform="translate(-33.112856,-144.97439)"><ellipse
       style="fill:#333333;stroke:none;stroke-width:0.283313"
       id="path438"
       cx="46.93074"
       cy="162.09122"
       rx="6.3301616"
       ry="6.2845545" /><ellipse
       style="fill:#333333;stroke:none;stroke-width:0.283313"
       id="path438-5"
       cx="92.949326"
       cy="161.72635"
       rx="6.3301616"
       ry="6.2845545" /><path
       id="path234"
       style="fill:#000000;stroke:#ffffff;stroke-width:0.264583"
       d="m 77.933376,145.1072 c -6.048299,-0.0502 -12.852682,1.4394 -20.011182,6.22029 -4.021497,0.319 -8.873255,0.0848 -11.584305,1.27744 -3.997494,1.86912 -7.193415,2.93665 -10.489799,4.10466 -0.631573,2.45345 -0.53487,4.46815 0,7.38818 l -2.280481,1.55081 7.388696,-0.27337 c 0,0 -1.866794,-7.84021 5.564001,-8.9395 7.301378,-1.08015 6.476091,8.11836 6.476091,8.11836 l 33.932812,0.45631 c -0.450077,-0.11252 -1.113111,-8.85964 5.290633,-8.84804 6.403745,0.0116 6.851217,3.59989 7.38818,8.30027 l 7.388698,-1.00304 2.09806,0.0909 0.27337,-6.11126 -1.27692,-1.45934 -0.54726,-4.10518 0.91209,-1.00304 -7.66206,-0.72967 c -3.69951,0.0385 -12.078873,-4.94532 -22.860624,-5.03483 z m -0.75706,1.56373 c 0.892491,-0.001 1.83176,0.0253 2.821533,0.0822 l -0.866613,4.9258 -18.197339,0.77515 c 3.35419,-3.15661 7.615006,-5.77194 16.242419,-5.78311 z m 3.642672,0.12764 c 4.923377,0.0576 8.928801,1.54346 12.77028,3.28404 l -0.958081,1.36839 -12.678813,0.31884 z" /></g></svg>
