<?xml version="1.0" encoding="UTF-8" standalone="no"?>
<!-- Created with Inkscape (http://www.inkscape.org/) -->

<svg
   width="51.820831mm"
   height="52.121307mm"
   viewBox="0 0 51.820831 52.121307"
   version="1.1"
   id="svg5"
   inkscape:export-filename="pelo.svg"
   inkscape:export-xdpi="96"
   inkscape:export-ydpi="96"
   xmlns:inkscape="http://www.inkscape.org/namespaces/inkscape"
   xmlns:sodipodi="http://sodipodi.sourceforge.net/DTD/sodipodi-0.dtd"
   xmlns="http://www.w3.org/2000/svg"
   xmlns:svg="http://www.w3.org/2000/svg">
  <sodipodi:namedview
     id="namedview7"
     pagecolor="#ffffff"
     bordercolor="#000000"
     borderopacity="0.25"
     inkscape:showpageshadow="2"
     inkscape:pageopacity="0.0"
     inkscape:pagecheckerboard="0"
     inkscape:deskcolor="#d1d1d1"
     inkscape:document-units="mm"
     showgrid="false" />
  <defs
     id="defs2" />
  <g
     inkscape:label="Layer 1"
     inkscape:groupmode="layer"
     id="layer1"
     sodipodi:insensitive="true"
     style="display:none"
     transform="translate(-83.053174,-191.88024)">
    <rect
       style="fill:#000000;stroke-width:0.264583"
       id="rect121"
       width="146.8011"
       height="98.168404"
       x="35.73278"
       y="162.92601"
       sodipodi:insensitive="true" />
  </g>
  <g
     inkscape:groupmode="layer"
     id="layer2"
     inkscape:label="Layer 2"
     style="display:inline;fill:#ffffff"
     transform="translate(-83.053174,-191.88024)">
    <path
       style="display:inline;fill:#000000;stroke:#ffffff;stroke-width:0.264583"
       d="m 109.00338,194.01689 10.39865,-2.00676 -4.4696,1.91554 c 10.30754,1.61976 8.32948,5.47326 11.49325,8.39189 2.34739,1.32619 3.92169,-1.59958 5.83783,-2.64527 -0.59597,3.01798 -0.54854,6.64152 -5.10811,5.92906 1.23794,7.46199 -4.43981,20.13129 7.47973,22.62162 -2.02345,2.50569 -4.30981,1.85657 -6.56756,1.55068 l 5.74662,3.10135 c -10.1678,1.84057 -16.81948,11.76818 -26.27027,10.94594 -8.554077,-0.74422 -22.415925,-14.36461 -21.70946,-13.86486 4.46462,3.15823 9.486484,-0.27365 9.486484,-0.27365 0,0 -8.62315,-1.67475 -11.949324,-9.0304 4.546137,3.16795 6.562473,-3.15086 9.304054,-6.75 -2.056852,0.41491 -2.914423,1.73628 -6.293919,-0.27365 3.710676,-1.90157 4.967314,-6.70788 8.665541,-6.65879 -4.27927,0.60564 -6.398117,-1.73475 -8.027027,-4.74324 4.388622,3.8919 8.247707,-9.76796 21.983111,-8.20946 z"
       id="path981"
       sodipodi:nodetypes="cccccccccasccccccc" />
    <path
       style="display:none;fill:#000000;stroke:none;stroke-width:0.264583"
       d="m 109.00433,193.95031 c 4.32888,-0.0499 9.05688,2.56233 11.41643,6.19196 3.05092,4.69313 3.56066,11.03409 1.32588,16.7405 -0.97587,2.49184 -3.20771,6.7756 -5.78742,7.98308 l 0.39807,3.84975 c 5.47367,5.75321 12.51746,3.44703 16.44281,8.13611 2.52724,3.01896 3.49781,6.87454 3.29406,11.34277 v 16.2539 l -48.632695,-0.129 c -0.201358,-5.8692 -0.368063,-12.50133 1.10756,-18.50032 0.943799,-3.83692 0.984979,-8.48651 4.861499,-10.81112 4.870906,-2.92091 8.329316,-2.44165 11.961826,-4.09936 0,0 -0.0508,-3.43536 -0.64499,-6.19196 -3.85003,-2.74923 -5.812745,-5.40286 -6.44348,-9.12764 -0.92608,-5.46895 -0.567056,-12.32036 2.7025,-17.0592 1.74462,-2.52862 4.92608,-4.54407 7.99795,-4.57947 z"
       id="path665"
       sodipodi:nodetypes="aasccacccasccsaa" />
    <path
       style="display:none;fill:#ffffff;stroke:none;stroke-width:0.236596"
       d="m 97.122963,209.58994 26.639317,-0.23002 c -0.84665,2.59768 -4.22885,3.23495 -6.7683,4.5238 l -7.11538,-4.29378 -8.24343,5.06052 c -1.880827,-1.63135 -5.15142,-3.05804 -4.512207,-5.06052 z"
       id="path871"
       sodipodi:nodetypes="cccccc" />
  </g>
</svg>
